<svg version="1" xmlns="http://www.w3.org/2000/svg" width="1844" height="1844" viewBox="0 0 1383.000000 1383.000000"><path d="M304.5 48.7c-39 .3-114.5 2.3-129.3 3.4-18.4 1.3-30.6 4.5-46.1 12.3-30.7 15.5-63.3 51.3-69.6 76.4-4 16.3-5.2 55-6.6 214.7-1.6 188.7-1.7 748.3-.1 810.3.7 27.1 1.7 53.8 2.2 59.3 4.3 44.5 47.1 94.1 92.7 107.5 8 2.3 11.3 2.6 36.3 3.4 61.4 2.1 224.8 3.2 616 3.9 307.2.7 411.8.6 412.6-.3.7-.6 2.8-4.9 4.9-9.5 2.9-6.5 3.6-9.1 3.1-11.9-1.4-9-15.1-24.2-77.1-85.2-71.9-71-85.5-82.7-102.9-88.8-6.2-2.1-8.2-2.4-16.1-1.9-4.9.3-13.9 1.7-20 3.2-17.7 4.2-23 4.8-37 4.2-19.8-1-38.3-5.8-58.8-15.5-19.1-9.1-33.3-18.9-48.6-33.6-24.3-23.6-40.3-53.2-47.8-88.5-2.4-11.2-2.7-14.8-2.7-33.1-.1-22.8 1.5-34 7.5-52.3 11.6-35.6 32.1-61.7 69.8-88.6 28.3-20.3 48.9-26.1 92.7-26.1 34 0 46.7 2.4 67.2 12.5 54.9 27.3 90.6 74.3 99.3 131 2 13.1 1.5 34.9-1.1 51.5-1.6 9.6-2.4 18.9-2.4 27.6-.1 12.4 0 13.2 2.5 17 13 19.7 141.5 149.7 168.5 170.5 6.1 4.7 8.1 4.7 13.4.3 5.1-4.3 6.1-7.5 7.1-21.8 2.5-38.1 3.1-178.3 2.4-565.8-.3-218.7-.8-398.5-1-399.5-.2-1-.4-21.9-.4-46.4l-.1-44.6-9.1-14.4c-12.3-19.5-21.2-31-32.2-41.5-15.1-14.4-31-24.3-49.3-30.4-12.2-4.2-21.9-5.8-40.4-7-26.2-1.7-149.3-2.3-251.8-1.2l-94.2 1-117.8 118.4C675.4 234.3 616.2 294 608.6 302c-25.7 26.9-35.6 40.4-35.6 48.4 0 1.9 1.3 11.6 2.9 21.3 9.5 57.9 5.1 82.8-22.6 126-10.3 16.1-18.4 26.2-30.1 37.4-40 38.5-98.3 53.6-153 39.9-30.3-7.7-56.3-23.2-82.8-49.5-23.7-23.4-32.9-39.9-41.4-73.7-9-35.5-9.1-49.7-.4-82.7 6.6-25.2 12.1-37.8 23.1-52.6 8.2-11.1 35.9-38.8 47.2-47.3 17.5-13.2 46-23.6 76.2-27.8 12-1.7 30.2-1.5 34.9.4 5.6 2.2 23.2 4.5 35 4.6 12 .1 12.7 0 19-3 3.6-1.7 10.3-6.2 15-9.9 9.4-7.5 109-106.8 130-129.5 15.3-16.7 24.1-28 26.5-34.4 1.6-4.2 1.6-4.8-.2-12.8l-2-8.3H489.9c-88.2 0-171.6.1-185.4.2zm707.8 195.2c44.5 9.6 81.9 35.9 109.2 76.7 8.3 12.3 17.9 31.8 20.5 41.4 5.4 20.2 5.4 77.9 0 97.8-3.8 13.8-16.8 36.7-31 54.7-18.9 23.8-52.3 50-72.9 57.1-12 4.1-19.1 4.6-80.3 5.1l-58.6.5L734.6 742C644.1 832.5 570 907.2 570 907.8c0 .6 1.1 6.2 2.5 12.4 5.5 25.5 8 63.6 5.6 83.3-3.4 26.5-13.3 51.3-30 75-7.2 10.2-27.1 30.2-37.9 38-36.5 26.4-83.9 39.3-120.8 33-9.7-1.7-27.9-6.5-36.1-9.5-8.3-3.1-22.1-10.3-31.8-16.7-25.1-16.6-48.9-41.2-59.5-61.5-8.5-16.2-16.7-41.9-21.1-65.8-1.7-9.4-1.5-26 .6-37 8.1-44.7 23.3-74.5 51.6-101.4 19.6-18.7 49.8-36.5 70.7-41.9 8.5-2.2 9.9-2.2 65.8-2.1l57.1.2 165.7-165.7 165.7-165.7L815 458c-7.5-60.1-4.2-93.4 12.7-126.1 9.5-18.5 24.1-35.5 46.5-54.4 23.5-19.9 45.2-29.3 80.7-35 13.1-2.2 44.7-1.4 57.4 1.4z"/><path d="M952.5 332.9c-4.3.5-9.2 1.9-12.3 3.5-8.4 4.3-30.9 28.2-35.7 38-3.9 8-4.8 15.2-4.2 35.6.5 21.3 2.2 29.5 8.4 41.3 7.4 14 28 30.9 44.6 36.4 7.5 2.5 9.5 2.7 24.2 2.7 15.4.1 16.3 0 24.7-3 12.5-4.5 22.8-11.2 33.3-21.8 16.1-16.3 24.4-34.5 25.3-55.1.7-17.9-2.7-28.5-13.8-43.5-7.5-10.1-22.3-24.9-28.5-28.6-7.9-4.6-13.3-5.4-37-5.9-12.1-.2-25.2 0-29 .4zM401.8 903c-13.3 1.6-24.1 6-37.6 15.3-20.6 14.2-26.5 28.2-26.6 63.2-.1 25.7 1.6 31.2 13.9 46.4 6.7 8.3 16.9 17.1 23.3 20.1 6.4 3.1 21.7 5 39.4 5 26 0 32.6-2.5 49.2-18.8 13-12.8 20.1-25.1 23.2-40.2 3.1-15.6.5-30.3-8.7-49-4.6-9.2-6.4-11.7-14.8-20.1-8.2-8.1-11-10.2-19.1-14.1-14.2-6.9-27.8-9.4-42.2-7.8zM391 338c-10.2.5-13.5 1.1-17.5 3-6 2.8-22.3 18.9-28.4 28.1-6.8 10.2-7.5 14.1-7.5 39.4 0 30.8 2.3 39.3 13.5 51 15.4 16.1 34.4 25.2 54.9 26.2 29.4 1.5 57.8-13.7 71.6-38.3 6.6-11.9 9.6-22.3 10.1-35.4 1-22.7-6.4-39.8-25.2-58.6-9.2-9.3-15.4-12.9-24.6-14.3-8.7-1.4-31.8-1.9-46.9-1.1zM954.6 904.1c-9.4 2.2-20.6 10.1-36.1 25.5-13.5 13.3-17.4 24.4-17.5 49.2 0 20.2 4.2 35.1 13.9 48.9 15.1 21.5 40.3 30.7 74.9 27.5 15.1-1.4 22.5-3.1 31.2-7.5 8.5-4.2 19.2-15 24.2-24.3 8-15.1 12-37.9 9.9-56.4-1.5-12.5-3.2-18.4-8.2-28-5.1-9.8-11.3-16.8-20.4-22.9-14.3-9.5-28.7-13.1-52.5-13-8.5.1-17.2.5-19.4 1z"/></svg>