<?xml version="1.0" encoding="UTF-8" standalone="no"?>
<!-- Created with Inkscape (http://www.inkscape.org/) -->

<svg
   xmlns:dc="http://purl.org/dc/elements/1.1/"
   xmlns:cc="http://creativecommons.org/ns#"
   xmlns:rdf="http://www.w3.org/1999/02/22-rdf-syntax-ns#"
   xmlns:svg="http://www.w3.org/2000/svg"
   xmlns="http://www.w3.org/2000/svg"
   xmlns:sodipodi="http://sodipodi.sourceforge.net/DTD/sodipodi-0.dtd"
   xmlns:inkscape="http://www.inkscape.org/namespaces/inkscape"
   width="211.68361mm"
   height="76.199997mm"
   viewBox="0 0 211.68361 76.199997"
   version="1.1"
   id="svg8"
   inkscape:version="0.92.2 (5c3e80d, 2017-08-06)"
   sodipodi:docname="full_logo_black.svg">
  <defs
     id="defs2" />
  <sodipodi:namedview
     id="base"
     pagecolor="#ffffff"
     bordercolor="#666666"
     borderopacity="1.0"
     inkscape:pageopacity="0.0"
     inkscape:pageshadow="2"
     inkscape:zoom="1.4"
     inkscape:cx="215.69194"
     inkscape:cy="29.671455"
     inkscape:document-units="mm"
     inkscape:current-layer="layer1"
     showgrid="false"
     inkscape:window-width="1920"
     inkscape:window-height="1001"
     inkscape:window-x="-9"
     inkscape:window-y="-9"
     inkscape:window-maximized="1" />
  <metadata
     id="metadata5">
    <rdf:RDF>
      <cc:Work
         rdf:about="">
        <dc:format>image/svg+xml</dc:format>
        <dc:type
           rdf:resource="http://purl.org/dc/dcmitype/StillImage" />
        <dc:title></dc:title>
      </cc:Work>
    </rdf:RDF>
  </metadata>
  <g
     inkscape:label="Layer 1"
     inkscape:groupmode="layer"
     id="layer1"
     transform="translate(0.0084748,-2.6321411)">
    <path
       style="fill:#000000;stroke-width:0.0508"
       d="m 34.302996,73.110902 c -17.886143,-0.0471 -24.107451,-0.1288 -24.827802,-0.32616 -2.32131,-0.63597 -4.54481,-3.12444 -4.81216,-5.385627 -0.10924,-0.923925 -0.158296,-4.590984 -0.187566,-14.0208 -0.0316,-10.181012 0.05152,-32.619169 0.1355,-36.575998 0.05328,-2.510648 0.118946,-3.773337 0.229828,-4.4196 0.205287,-1.196487 1.602882,-2.9022257 3.137363,-3.8290967 0.868598,-0.524658 1.685932,-0.790578 2.666537,-0.867558 1.731986,-0.135966 4.89229,-0.174814 14.434834,-0.177441 l 9.826535,-0.0027 0.09101,0.3556 c 0.05005,0.19558 0.09153,0.412422 0.09216,0.481871 0.0047,0.508769 -1.02214,1.6734057 -4.901308,5.5591727 -2.931258,2.936244 -3.566603,3.48663 -4.200332,3.63866 -0.34943,0.08383 -1.335285,0.03108 -1.9716,-0.105482 -0.889495,-0.190902 -1.08209,-0.212095 -1.624704,-0.178782 -1.155715,0.07096 -2.73381,0.49445 -3.707926,0.995053 -0.612794,0.314918 -1.172608,0.760263 -2.00797,1.597384 -1.436153,1.439178 -1.850539,2.150124 -2.338062,4.011323 -0.257236,0.982042 -0.34461,1.590962 -0.310196,2.161799 0.06509,1.079727 0.560385,2.997692 0.996145,3.857453 0.249702,0.492667 0.77019,1.171494 1.347313,1.757181 1.713483,1.738913 3.500177,2.633564 5.647864,2.828056 1.129583,0.102294 2.221602,-0.03283 3.384542,-0.418804 1.618588,-0.537197 3.080567,-1.608757 4.056905,-2.973515 1.038044,-1.451014 1.64611,-2.733134 1.822463,-3.842701 0.0985,-0.619752 0.03637,-2.074337 -0.130793,-3.06187 -0.07567,-0.44704 -0.148813,-0.967293 -0.162538,-1.156119 -0.05968,-0.821055 -0.09296,-0.784229 8.664702,-9.58808 l 5.786083,-5.8165997 3.981986,-0.04036 c 4.81557,-0.04881 12.863946,-0.01378 13.814267,0.06013 1.123478,0.08737 1.976567,0.316069 2.789428,0.74779 1.242914,0.660131 2.133854,1.561943 3.189814,3.2287317 l 0.493461,0.778909 0.041,12.623799 c 0.04999,15.390651 0.01695,38.198124 -0.05806,40.081199 -0.02949,0.74041 -0.06825,1.433982 -0.08611,1.541277 -0.03875,0.232633 -0.379832,0.616244 -0.596235,0.67056 -0.10801,0.02711 -0.184292,0.0059 -0.31592,-0.08773 -0.9084,-0.646333 -6.353896,-6.068806 -8.152978,-8.118505 -0.652928,-0.74388 -0.681279,-0.817606 -0.643911,-1.674409 0.01649,-0.378287 0.07077,-0.893531 0.120599,-1.144991 0.140574,-0.709376 0.127813,-2.514398 -0.02254,-3.188132 -0.38232,-1.7132 -1.102553,-3.013419 -2.371725,-4.281633 -1.296538,-1.295563 -2.765877,-2.151852 -4.109898,-2.395137 -0.593908,-0.107504 -2.980199,-0.125462 -3.645534,-0.02743 -1.223379,0.180249 -2.015895,0.54369 -3.338254,1.530894 -1.801235,1.344708 -2.903085,2.972332 -3.339104,4.932441 -0.352173,1.583187 -0.283641,3.034375 0.217113,4.5974 0.712631,2.224369 2.194011,3.950792 4.332374,5.049027 1.304984,0.670225 2.308028,0.937194 3.530601,0.939703 0.700046,0.0014 0.817758,-0.01242 1.4478,-0.170484 0.580557,-0.145654 0.779348,-0.172624 1.2954,-0.175753 0.563544,-0.0034 0.632221,0.0069 0.90905,0.13656 0.908533,0.425537 2.023446,1.427171 5.950743,5.346147 2.587402,2.581918 3.021666,3.091088 3.020299,3.541278 -5.08e-4,0.0939 -0.09484,0.35623 -0.2159,0.59892 l -0.215392,0.4318 -7.7724,0.004 c -4.27482,0.002 -13.898881,-0.0125 -21.386801,-0.0322 z m -10.109201,-9.77217 c 0.854368,-0.193772 1.582086,-0.444932 2.234593,-0.771236 2.140021,-1.070173 3.718188,-2.859765 4.447772,-5.043642 0.311602,-0.932718 0.377731,-1.390873 0.374727,-2.596139 -0.003,-1.21826 -0.06389,-1.854973 -0.284824,-2.9803 l -0.161246,-0.8213 8.35309,-8.384197 8.353089,-8.384196 2.032,-0.0035 c 2.749002,-0.0047 4.254125,-0.06722 4.756694,-0.197585 1.209132,-0.31364 3.004018,-1.685728 4.134567,-3.160637 0.682315,-0.890153 1.249024,-1.924578 1.444518,-2.636707 0.146106,-0.532241 0.224186,-1.867621 0.181183,-3.0988 -0.05216,-1.493296 -0.149712,-1.936811 -0.639475,-2.907369 -0.508041,-1.00678 -1.07947,-1.790648 -1.898594,-2.604431 -0.957972,-0.951725 -2.093799,-1.654568 -3.321162,-2.055113 -0.956204,-0.312054 -1.451524,-0.383771 -2.62573,-0.380176 -0.902163,0.0028 -1.088666,0.01847 -1.664543,0.140164 -1.996372,0.421887 -2.943863,0.955992 -4.562314,2.571796 -1.233312,1.231294 -1.857771,2.401567 -2.129354,3.990529 -0.205401,1.201748 -0.185232,2.379923 0.07531,4.39916 0.06995,0.542102 0.12725,1.019768 0.127339,1.061478 1.01e-4,0.04171 -3.788884,3.866435 -8.419939,8.499387 l -8.420101,8.423546 -2.5146,-0.034 c -3.400305,-0.04597 -3.627217,-0.01868 -4.856116,0.584048 -2.351832,1.153482 -3.886317,2.845036 -4.64008,5.115036 -0.422587,1.272642 -0.595984,2.567833 -0.464323,3.468268 0.170928,1.168979 0.731805,2.879704 1.208972,3.68747 0.794818,1.345499 2.626583,2.918211 4.174729,3.584336 0.526022,0.226334 1.420574,0.48575 2.113018,0.61277 0.746061,0.13685 1.778723,0.105486 2.5908,-0.07869 z m -2.148237,-4.906041 c -0.629233,-0.06602 -0.977263,-0.147594 -1.215357,-0.284856 -0.638851,-0.368305 -1.399249,-1.259824 -1.619971,-1.89932 -0.140348,-0.406629 -0.140219,-2.290592 2.03e-4,-2.8194 0.203909,-0.76794 0.587932,-1.2753 1.342685,-1.773911 1.134068,-0.749198 2.376859,-0.883851 3.605926,-0.390692 0.87016,0.349149 1.632196,1.125216 2.042623,2.08023 0.686899,1.598335 0.381033,3.007364 -0.923905,4.25614 -0.381061,0.364658 -0.779969,0.628833 -1.134757,0.751479 -0.302839,0.104689 -1.447434,0.148524 -2.097437,0.08033 z M 50.941994,29.878064 c -0.747984,-0.114453 -1.357752,-0.411586 -2.041353,-0.994732 -0.567899,-0.484445 -0.92087,-1.02705 -1.08418,-1.666652 -0.193301,-0.757067 -0.215789,-2.20414 -0.04379,-2.818147 0.10977,-0.391875 0.345554,-0.72141 1.019476,-1.424837 0.653111,-0.681705 0.865575,-0.829658 1.306283,-0.90966 0.385865,-0.07005 2.339717,-0.07051 2.770262,-6.56e-4 0.474438,0.07698 0.85998,0.30509 1.367202,0.808944 1.155375,1.147698 1.575949,2.092098 1.436828,3.226393 -0.214087,1.745458 -1.531925,3.274937 -3.191573,3.704121 -0.402868,0.104181 -1.120648,0.139263 -1.539151,0.07523 z M 174.9174,68.742724 c -9.36132,-0.06346 -17.73388,-0.148443 -19.8882,-0.201869 -4.0796,-0.101174 -5.58307,-0.2451 -6.93151,-0.66355 -0.64166,-0.199116 -2.45739,-0.972038 -3.22849,-1.374297 -1.18176,-0.616499 -2.34568,-1.470772 -3.2766,-2.404893 -1.7928,-1.79897 -3.06579,-4.063649 -3.95546,-7.0368 -0.0961,-0.32131 -0.33706,-1.228065 -0.53538,-2.015012 L 136.7412,53.615492 V 35.680028 17.744563 l 0.39767,-0.757234 c 0.48831,-0.929849 0.77186,-1.334993 1.30507,-1.864732 0.33353,-0.331363 0.50403,-0.454748 0.89153,-0.645171 2.1819,-1.072214 6.48868,-0.960884 8.15718,0.210863 0.61003,0.428404 1.1358,1.058618 1.76369,2.114028 l 0.36266,0.6096 0.0589,7.721599 c 0.1513,19.818551 0.21706,23.555872 0.4512,25.639958 0.17268,1.537062 0.37295,2.045208 1.16318,2.951278 1.02491,1.175155 2.25536,1.612091 5.10847,1.814026 1.20288,0.08514 5.26039,0.11781 6.9342,0.05584 1.90252,-0.07044 2.42136,-0.1445 2.4861,-0.354863 0.18491,-0.600806 0.23633,-4.291046 0.28391,-20.378038 0.0277,-9.380638 0.0648,-15.430929 0.0977,-15.9512 0.0896,-1.419242 0.206,-1.908038 0.63191,-2.654691 0.82159,-1.440326 2.00631,-2.151452 4.04134,-2.425813 0.2359,-0.0318 0.88741,-0.05773 1.4478,-0.05763 1.99787,4.06e-4 3.74704,0.331053 4.43928,0.83921 0.81771,0.600254 1.79391,2.068631 2.06359,3.104017 0.2083,0.799696 0.28082,6.265342 0.28145,21.210103 l 5.1e-4,12.064999 0.43228,0.908445 c 0.96205,2.021704 1.3321,2.40784 2.93723,3.064892 0.72843,0.298181 1.22219,0.440843 1.81195,0.523525 0.6767,0.09487 2.60537,0.149225 5.2832,0.148895 3.15418,-5.08e-4 4.53043,-0.05189 4.92345,-0.184257 0.41229,-0.138852 0.45451,-0.224135 0.51152,-1.033176 0.10646,-1.510554 0.16155,-6.68116 0.2054,-19.277923 0.0502,-14.405628 0.0706,-15.379966 0.35885,-17.094199 0.1951,-1.16036 0.42751,-1.655041 1.08594,-2.3114 1.58804,-1.583045 2.4801,-1.904349 5.28852,-1.904827 2.02269,-3.55e-4 2.9117,0.186584 3.81515,0.802189 0.45724,0.311562 1.39262,1.139469 1.59794,1.414347 0.65306,0.874274 0.85473,1.981442 1.02126,5.60649 0.0936,2.036626 0.0925,36.895592 -10e-4,39.115999 -0.13184,3.12452 -0.2873,4.229674 -0.7182,5.1054 -0.15497,0.314955 -0.32364,0.538713 -0.74959,0.99443 -0.69105,0.739323 -0.93834,0.963041 -1.31569,1.190269 -0.57551,0.346553 -1.3579,0.518993 -2.91695,0.642889 -0.90761,0.07213 -19.14707,0.09842 -27.7622,0.04002 z m -54.34443,-0.07198 c -1.96736,-0.28226 -3.48985,-1.312799 -4.29824,-2.909377 -0.0918,-0.181335 -0.1167,-0.35783 -0.15762,-1.1176 -0.10453,-1.940981 -0.21049,-7.71024 -0.30579,-16.650253 -0.13208,-12.390335 -0.26288,-16.612886 -0.54028,-17.440936 -0.391,-1.167164 -1.3836,-2.243932 -2.76144,-2.995612 -0.7483,-0.408235 -1.28325,-0.488729 -3.8123,-0.573632 -2.55909,-0.08591 -11.61017,-0.08951 -12.316701,-0.0049 -0.722702,0.08655 -0.796763,0.12336 -0.873664,0.43424 -0.212755,0.860104 -0.265272,5.381887 -0.267538,23.036976 l -0.0018,13.987739 -0.414838,0.813125 c -0.484886,0.950418 -0.894365,1.548456 -1.355786,1.980093 -0.601802,0.56296 -1.471463,1.048669 -2.117364,1.182563 -0.569809,0.11812 -1.819966,0.190348 -3.427212,0.198003 -1.735395,0.0083 -1.849639,-0.01224 -2.667001,-0.478592 -1.032926,-0.589356 -1.82944,-1.35607 -2.5019,-2.408311 l -0.4191,-0.655792 v -23.8068 -23.8068 l 0.356444,-0.574141 c 0.682559,-1.099429 1.255893,-1.691848 2.357988,-2.436497 l 0.682752,-0.461327 14.7733,5.43e-4 14.7733,5.44e-4 1.3208,0.424607 c 1.52366,0.489821 2.03096,0.666295 2.63936,0.918141 1.09496,0.453262 2.70719,1.368608 3.47392,1.972324 0.84746,0.667283 2.33897,2.276396 3.00045,3.23704 0.56563,0.82142 1.33664,2.370178 1.74988,3.515017 0.42295,1.171746 0.96976,3.578013 1.12332,4.943183 0.15565,1.383776 0.17844,2.368116 0.23811,10.287 0.0642,8.525263 -0.002,22.789615 -0.11226,24.256999 -0.0795,1.056167 -0.19984,1.581622 -0.50158,2.190399 -0.41508,0.837474 -1.06647,1.610609 -1.8322,2.174631 -0.61293,0.451475 -0.94758,0.572308 -1.9812,0.71534 -0.8293,0.114763 -3.16514,0.146563 -3.82383,0.05206 z M 50.508196,58.512539 c -1.144432,-0.225928 -1.93007,-0.835518 -2.41176,-1.871325 -0.296179,-0.63689 -0.383505,-1.094572 -0.375402,-1.967499 0.0075,-0.811591 0.115186,-1.359027 0.343788,-1.748222 0.258741,-0.44051 1.461142,-1.519628 1.936951,-1.738354 0.451023,-0.207332 1.302169,-0.275255 2.1372,-0.170551 0.611911,0.07673 0.961045,0.178908 1.478387,0.432676 1.169965,0.573898 1.791843,1.701411 1.792447,3.249851 0,0.596961 -0.115686,1.29509 -0.297982,1.794596 -0.375336,1.028441 -1.06837,1.678808 -2.073077,1.945442 -0.518567,0.137622 -1.989151,0.180269 -2.530552,0.07339 z M 22.251153,29.623567 c -0.692258,-0.07948 -1.285306,-0.327013 -1.948254,-0.813199 -1.026846,-0.753057 -1.24388,-1.334572 -1.201641,-3.219652 0.0266,-1.186951 0.07182,-1.381643 0.432419,-1.861439 0.354512,-0.471701 1.022036,-1.133101 1.269363,-1.257718 0.33785,-0.170227 0.927762,-0.223948 2.144103,-0.195256 0.921926,0.02175 1.146253,0.04249 1.424452,0.131732 0.800933,0.256915 1.838882,1.504456 2.102409,2.526947 0.256115,0.993738 0.05048,2.110154 -0.556975,3.0239 -0.765692,1.151766 -2.252534,1.826945 -3.665876,1.664685 z"
       id="path33"
       inkscape:connector-curvature="0" />
  </g>
</svg>
