<?xml version="1.0" encoding="UTF-8" standalone="no"?>
<!-- Created with Inkscape (http://www.inkscape.org/) -->

<svg
   xmlns:dc="http://purl.org/dc/elements/1.1/"
   xmlns:cc="http://creativecommons.org/ns#"
   xmlns:rdf="http://www.w3.org/1999/02/22-rdf-syntax-ns#"
   xmlns:svg="http://www.w3.org/2000/svg"
   xmlns="http://www.w3.org/2000/svg"
   xmlns:sodipodi="http://sodipodi.sourceforge.net/DTD/sodipodi-0.dtd"
   xmlns:inkscape="http://www.inkscape.org/namespaces/inkscape"
   width="250.61334mm"
   height="42.333332mm"
   viewBox="0 0 250.61334 42.333332"
   version="1.1"
   id="svg8"
   inkscape:version="0.92.2 (5c3e80d, 2017-08-06)"
   sodipodi:docname="full_logo_black.svg">
  <defs
     id="defs2" />
  <sodipodi:namedview
     id="base"
     pagecolor="#ffffff"
     bordercolor="#666666"
     borderopacity="1.0"
     inkscape:pageopacity="0.0"
     inkscape:pageshadow="2"
     inkscape:zoom="1.4"
     inkscape:cx="352.0199"
     inkscape:cy="-15.405845"
     inkscape:document-units="mm"
     inkscape:current-layer="layer1"
     showgrid="false"
     inkscape:window-width="1920"
     inkscape:window-height="1001"
     inkscape:window-x="-9"
     inkscape:window-y="-9"
     inkscape:window-maximized="1" />
  <metadata
     id="metadata5">
    <rdf:RDF>
      <cc:Work
         rdf:about="">
        <dc:format>image/svg+xml</dc:format>
        <dc:type
           rdf:resource="http://purl.org/dc/dcmitype/StillImage" />
        <dc:title></dc:title>
      </cc:Work>
    </rdf:RDF>
  </metadata>
  <g
     inkscape:label="Layer 1"
     inkscape:groupmode="layer"
     id="layer1"
     transform="translate(37.616196,-89.869049)">
    <path
       style="fill:#080808;stroke-width:0.21166667"
       d="m -32.507646,129.62558 c -1.065702,-0.49788 -1.608653,-1.02188 -2.089007,-2.0161 -0.385949,-0.79882 -0.403947,-1.51189 -0.403947,-16.00379 0,-13.63633 0.03511,-15.24046 0.347801,-15.88816 0.517405,-1.07175 1.133604,-1.67794 2.15683,-2.12178 0.834208,-0.36186 1.527966,-0.39782 7.672917,-0.39782 5.662016,0 6.755785,0.0482 6.755785,0.29748 0,0.16362 -1.071562,1.35243 -2.38125,2.64181 l -2.38125,2.34432 -1.766508,0.004 c -2.31927,0.005 -3.464575,0.60521 -4.654706,2.43819 -0.475496,0.73233 -0.54973,1.07533 -0.54973,2.54 0,1.47288 0.07334,1.80749 0.563351,2.57017 1.036688,1.61357 2.528362,2.4394 4.39676,2.43417 2.211668,-0.006 3.874622,-1.10752 4.754892,-3.14904 0.310461,-0.72002 0.359149,-1.19061 0.247487,-2.39206 l -0.139011,-1.4957 4.077066,-4.11864 4.077066,-4.11865 5.0001763,0.002 c 4.4930929,0.002 5.0947152,0.0438 5.93237337,0.41431 1.11583052,0.49359 1.71603432,1.10373 2.17049533,2.20642 0.298237,0.72363 0.337789,2.55225 0.337789,15.61705 0,12.13911 -0.05072,14.81693 -0.282343,14.90581 -0.163313,0.0627 -1.28566293,-0.86162 -2.6622668,-2.19245 l -2.3799229,-2.30079 0.147519,-1.49709 c 0.1307486,-1.3269 0.08803,-1.62705 -0.3757528,-2.64008 -0.6066473,-1.3251 -1.7078939,-2.28948 -3.1858819,-2.78994 -1.298429,-0.43966 -1.6024246,-0.43182 -3.0554206,0.0789 -4.335784,1.5239 -4.655841,7.32518 -0.519197,9.41085 0.520983,0.26268 1.1427556,0.34013 2.3894663,0.29763 l 1.6852329,-0.0575 2.4534517,2.45345 c 1.4243135,1.42431 2.3922842,2.55243 2.307626,2.68941 -0.1051496,0.17013 -4.29024,0.23118 -15.0029199,0.21882 -13.648752,-0.0157 -14.921171,-0.0471 -15.644971,-0.38521 z m 9.950895,-5.29411 c 1.017086,-0.52424 1.985417,-1.58781 2.471043,-2.71408 0.312513,-0.72477 0.359328,-1.18869 0.244562,-2.42352 l -0.141935,-1.52716 4.742602,-4.7426 c 4.710254,-4.71026 4.747463,-4.74148 5.4558226,-4.57814 2.2661093,0.52257 4.6940445,-0.54098 5.7373538,-2.51322 0.7142141,-1.35013 0.6751383,-3.75662 -0.079712,-4.90899 -1.1599651,-1.77083 -2.3631716,-2.43417 -4.4152525,-2.43417 -1.6565719,0 -2.3426709,0.2646 -3.5582789,1.37228 -1.1053,1.00716 -1.565065,2.26613 -1.484241,4.06427 l 0.06835,1.52072 -4.748562,4.79086 c -3.87792,3.91246 -4.828735,4.76786 -5.185834,4.66544 -1.209081,-0.3468 -1.679175,-0.3502 -2.690392,-0.0195 -1.363985,0.44614 -2.396002,1.21935 -3.1099,2.33001 -0.474623,0.73841 -0.54959,1.08602 -0.54959,2.54838 0,1.46466 0.07423,1.80766 0.54973,2.54 1.177148,1.81298 2.259105,2.41412 4.365897,2.42569 1.117537,0.006 1.759563,-0.10315 2.328333,-0.39631 z m -3.687606,-3.31445 c -0.824963,-0.87471 -0.869418,-1.2073 -0.288688,-2.15979 1.087609,-1.78384 3.597445,-1.13993 3.597445,0.92294 0,0.74155 -0.112731,0.99165 -0.65124,1.44477 -0.942596,0.79315 -1.774799,0.72803 -2.657517,-0.20792 z m 16.204143,-16.16115 c -1.312808,-1.3128 -0.339662,-3.61461 1.5281649,-3.61461 1.2688083,0 2.4492035,1.62008 2.0385977,2.79795 -0.5203973,1.49281 -2.449028,1.9344 -3.5667626,0.81666 z m 18.748042,19.18115 c -0.557434,-0.55744 -0.727602,-0.93304 -0.839093,-1.85208 -0.07692,-0.63407 -0.109925,-5.86772 -0.07334,-11.63035 l 0.06651,-10.4775 0.486895,-0.68262 c 0.773572,-1.08455 1.419013,-1.16112 9.019672,-1.07008 6.574873,0.0787 6.832325,0.0975 8.061768,0.5886 0.917932,0.36664 1.636735,0.87752 2.592916,1.8429 0.727605,0.7346 1.323503,1.45389 1.324221,1.59842 6.35e-4,0.14453 0.138477,0.52574 0.306129,0.84714 0.534632,1.02491 0.7509,4.39352 0.7509,11.69607 0,7.66883 -0.112045,8.71649 -1.007556,9.4209 -0.700555,0.55105 -3.298135,0.59769 -4.047706,0.0727 -1.027185,-0.71947 -1.082705,-1.20101 -1.088121,-9.43763 -0.0028,-4.22384 -0.09138,-8.0519 -0.196893,-8.50679 -0.105516,-0.4549 -0.438558,-1.07403 -0.740099,-1.37584 -0.547511,-0.54801 -0.553853,-0.54884 -4.687326,-0.6144 -2.960201,-0.0469 -4.224979,0.006 -4.440687,0.18467 -0.252366,0.20945 -0.301841,1.72355 -0.303007,9.27315 -0.0013,8.37551 -0.02909,9.06483 -0.387401,9.60822 -0.661121,1.00262 -1.093863,1.19983 -2.648621,1.20705 -1.362406,0.006 -1.492119,-0.0355 -2.149156,-0.69251 z m 42.770497,0.25987 c -2.40196,-0.78872 -4.01058,-2.4952 -4.77653,-5.06712 -0.393158,-1.32016 -0.422393,-2.03991 -0.422393,-10.39933 v -8.98101 l 0.582083,-0.68277 c 1.038754,-1.21844 3.61361,-1.2079 4.734554,0.0194 l 0.61003,0.6679 v 8.22875 c 0,9.03409 0.02149,9.20289 1.286554,10.10369 0.526002,0.37455 0.958526,0.43029 3.533799,0.45541 1.613939,0.0157 3.046984,-0.0409 3.184542,-0.12594 0.185911,-0.1149 0.250105,-2.42651 0.250105,-9.00623 0,-9.45398 0.03171,-9.77339 1.063028,-10.70682 0.373285,-0.33786 0.76533,-0.41904 2.023688,-0.41904 1.480147,0 1.596462,0.0357 2.253249,0.69168 l 0.692535,0.69167 0.105833,8.51583 c 0.110596,8.89903 0.111777,8.90964 1.093081,9.82711 0.460612,0.43065 0.726152,0.4676 3.631102,0.50525 1.723783,0.0223 3.218628,-0.0439 3.321881,-0.14712 0.103254,-0.10327 0.216317,-4.35321 0.251251,-9.44432 l 0.06352,-9.25656 0.691987,-0.69177 c 0.656383,-0.65618 0.772317,-0.69177 2.253194,-0.69177 1.263555,0 1.650287,0.0806 2.028433,0.42283 1.073593,0.97159 1.058886,0.79519 1.058886,12.7005 0,12.09989 0.02483,11.83275 -1.188483,12.78714 -0.556698,0.4379 -0.685597,0.4419 -13.815479,0.42871 -12.548919,-0.0126 -13.320362,-0.0353 -14.510449,-0.42605 z m 34.371351,-0.31295 -0.72944,-0.75232 -0.06498,-7.84655 c -0.06927,-8.36434 0.05964,-10.3312 0.809092,-12.34464 0.656728,-1.76434 2.35581,-3.42542 4.230059,-4.13546 1.36389,-0.51669 1.43836,-0.52121 8.58151,-0.52121 6.585613,0 7.255803,0.0328 7.788193,0.38148 0.32039,0.20982 0.67586,0.62699 0.78995,0.92705 0.12894,0.33915 0.18543,4.93456 0.1493,12.14599 l -0.0581,11.60042 -0.62169,0.64878 c -0.57923,0.60447 -0.72417,0.64878 -2.12248,0.64878 -2.6688,0 -3.13592,-0.70661 -3.28833,-4.97417 l -0.10584,-2.96333 -4.735843,-0.057 c -3.31527,-0.0399 -4.82321,0.0155 -5.02708,0.18467 -0.22237,0.18455 -0.29124,0.95777 -0.29124,3.26988 v 3.02818 l -0.712907,0.7559 c -0.693261,0.73508 -0.756285,0.75591 -2.286811,0.75591 -1.52539,0 -1.596383,-0.0232 -2.303339,-0.75232 z m 15.209064,-13.68335 c 0.35113,-0.35114 0.35113,-5.27919 0,-5.63033 -0.17828,-0.17828 -1.362463,-0.254 -3.972053,-0.254 -4.19903,0 -4.83787,0.17214 -5.54718,1.49472 -0.45979,0.85733 -0.5539,3.96849 -0.13277,4.38961 0.35983,0.35984 9.292173,0.35984 9.652003,0 z m 11.53705,13.92483 -0.59389,-0.51084 v -9.59625 c 0,-9.03352 0.0248,-9.67041 0.42334,-10.86105 0.57638,-1.72207 2.43243,-3.62586 4.23333,-4.3422 1.21454,-0.4831 1.53346,-0.50849 7.3025,-0.58122 5.48623,-0.0692 6.09796,-0.0416 6.75538,0.30442 1.29211,0.68008 1.49962,1.40152 1.49962,5.21352 0,4.47898 -0.36116,5.26447 -2.55375,5.5542 -2.2348,0.29531 -3.58458,-0.90196 -3.58458,-3.17954 0,-0.7306 -0.11149,-1.41369 -0.254,-1.5562 -0.17265,-0.17265 -1.17262,-0.25375 -3.12209,-0.25321 -2.46648,6.8e-4 -2.96251,0.0584 -3.54249,0.41201 -1.23447,0.75271 -1.22147,0.65684 -1.33642,9.85303 -0.0781,6.24705 -0.17563,8.58868 -0.37206,8.93206 -0.49721,0.86921 -1.11303,1.12211 -2.7324,1.12211 -1.31072,0 -1.61325,-0.0728 -2.12249,-0.51084 z m 24.93614,0.16529 c -0.27133,-0.19005 -0.67144,-0.73774 -0.88911,-1.21708 -0.36301,-0.79938 -0.39617,-1.50757 -0.40043,-8.55338 -0.005,-8.00305 0.14233,-9.74388 0.9969,-11.79149 0.76916,-1.84297 2.25556,-3.2075 4.39595,-4.03556 0.96104,-0.3718 1.63516,-0.40944 7.33295,-0.40944 5.97502,0 6.29693,0.0202 6.74208,0.42283 0.95386,0.86277 1.05914,1.36776 1.05914,5.0805 0,3.71264 -0.10527,4.21761 -1.05903,5.0805 -0.37379,0.33818 -0.75432,0.42052 -1.90073,0.41126 -2.33653,-0.0189 -2.94419,-0.66407 -3.01952,-3.20607 -0.0227,-0.76492 -0.15337,-1.4523 -0.29915,-1.57329 -0.15776,-0.13093 -1.4562,-0.18801 -3.32383,-0.14613 -2.9318,0.0657 -3.08943,0.0917 -3.62899,0.5979 -1.13711,1.06678 -1.16209,1.28391 -1.16209,10.10118 v 8.14448 l -0.71966,0.71967 c -0.67893,0.67892 -0.80209,0.71967 -2.17541,0.71967 -1.00392,0 -1.60885,-0.10725 -1.94907,-0.34555 z m 28.65664,-0.0557 c -2.27493,-0.82968 -3.43575,-1.91217 -4.51161,-4.20712 l -0.56839,-1.21246 -0.063,-9.46416 -0.063,-9.46417 0.73467,-0.80167 0.73467,-0.80166 h 9.74886 9.74885 l 0.68267,0.68265 c 0.63889,0.63889 0.68264,0.77749 0.68264,2.16247 0,1.2786 -0.0707,1.55579 -0.51983,2.03856 -0.28592,0.3073 -0.75796,0.66769 -1.049,0.80086 -0.34654,0.15856 -2.93981,0.27865 -7.51416,0.34796 l -6.985,0.10583 v 1.905 1.905 l 5.25543,0.10584 5.25543,0.10583 0.72415,0.79064 c 0.67729,0.73947 0.72371,0.88331 0.71742,2.2225 -0.007,1.53541 -0.20722,1.97128 -1.20705,2.63056 -0.52373,0.34536 -1.0992,0.38616 -5.4643,0.3874 -3.51086,10e-4 -4.95014,0.0726 -5.13292,0.2554 -0.1397,0.1397 -0.254,0.70389 -0.254,1.25376 0,1.23162 0.71005,2.18556 1.86569,2.50653 0.44394,0.1233 3.27037,0.21719 6.55858,0.21786 6.13209,0.001 6.42527,0.0433 7.33952,1.05357 0.33715,0.37255 0.41694,0.7659 0.41694,2.05512 0,1.53039 -0.0275,1.61897 -0.68537,2.20677 l -0.68538,0.61239 -7.35207,-0.008 c -6.57492,-0.007 -7.46395,-0.0484 -8.41041,-0.39362 z m 22.28126,-0.21627 -0.69126,-0.61752 -0.0637,-11.18289 c -0.035,-6.15059 -0.008,-11.57241 0.0608,-12.04849 0.0931,-0.64699 0.29623,-0.99446 0.80453,-1.37584 l 0.68004,-0.51023 h 7.19667 c 7.05861,0 7.22202,0.01 8.51873,0.50174 1.44579,0.54869 2.99329,1.77947 3.75548,2.98687 0.26816,0.42478 0.68796,1.48657 0.93292,2.35953 0.4191,1.4936 0.44537,2.09046 0.44537,10.12121 0,8.28627 -0.0129,8.55479 -0.44226,9.24959 -0.60014,0.97105 -0.98315,1.13356 -2.67174,1.13356 -1.65204,0 -2.16133,-0.25616 -2.67923,-1.34758 -0.30044,-0.63309 -0.34511,-1.78079 -0.34511,-8.86603 0,-10.74517 0.38208,-10.09826 -5.96709,-10.10327 -2.34999,-0.002 -4.00814,0.0808 -4.08403,0.20363 -0.0703,0.11371 -0.12149,3.89006 -0.11379,8.3919 0.0157,9.21688 -0.0958,10.35388 -1.09823,11.1974 -0.53101,0.44682 -0.8379,0.52395 -2.08475,0.52395 -1.31629,0 -1.53102,-0.0616 -2.15335,-0.61753 z M -9.8285484,121.15421 c -0.7503596,-0.75036 -0.8283696,-1.80933 -0.1928046,-2.61732 0.8668706,-1.10205 2.4605932,-0.89701 3.2244389,0.41484 0.3537649,0.60756 0.3619246,0.7406 0.085956,1.40108 -0.6245966,1.49488 -2.05613,1.86286 -3.1175903,0.8014 z M -25.633012,105.26483 c -0.525786,-0.22025 -1.32223,-1.39058 -1.323464,-1.94475 -4.44e-4,-0.19544 0.320019,-0.6955 0.712119,-1.11125 0.788415,-0.83596 1.457384,-0.95796 2.446952,-0.44623 0.697858,0.36087 0.861805,0.70091 0.861805,1.78741 0,1.31219 -1.453199,2.23604 -2.697412,1.71482 z"
       id="path21"
       inkscape:connector-curvature="0" />
  </g>
</svg>
